<svg width="72" height="70" viewBox="0 0 72 70" fill="none" xmlns="http://www.w3.org/2000/svg" xmlns:xlink="http://www.w3.org/1999/xlink">
<path d="M70.667,35.001C70.667,52.678 57.564,67.293 40.541,69.664C38.95,69.885 37.321,70 35.668,70C33.76,70 31.887,69.848 30.062,69.554C13.395,66.871 0.667,52.421 0.667,35.001C0.667,15.671 16.338,0 35.666,0C54.993,0 70.667,15.671 70.667,35.001Z" fill="#1877F2"/>
<path d="M40.541,28.103L40.541,35.727L49.973,35.727L48.48,45.998L40.541,45.998L40.541,69.662C38.95,69.883 37.321,69.998 35.668,69.998C33.76,69.998 31.887,69.846 30.062,69.551L30.062,45.998L21.363,45.998L21.363,35.727L30.062,35.727L30.062,26.398C30.062,20.61 34.754,15.917 40.544,15.917L40.544,15.921C40.561,15.921 40.576,15.917 40.593,15.917L49.976,15.917L49.976,24.799L43.845,24.799C42.023,24.799 40.544,26.278 40.544,28.1L40.541,28.103Z" fill="#FFFFFF"/>
</svg>
