<svg width="70" height="70" viewBox="0 0 70 70" fill="none" xmlns="http://www.w3.org/2000/svg" xmlns:xlink="http://www.w3.org/1999/xlink">
<path d="M34.914,0L34.754,0C15.468,0 -0.166,15.634 -0.166,34.92L-0.166,35.08C-0.166,54.366 15.468,70 34.754,70L34.914,70C54.2,70 69.834,54.366 69.834,35.08L69.834,34.92C69.834,15.634 54.2,0 34.914,0Z" fill="url(#pf_0_32_54)"/>
<path d="M45.665,14.241L24.005,14.241C18.021,14.241 13.153,19.109 13.153,25.093L13.153,44.909C13.153,50.893 18.021,55.761 24.005,55.761L45.665,55.761C51.649,55.761 56.517,50.893 56.517,44.909L56.517,25.093C56.517,19.109 51.649,14.241 45.665,14.241ZM16.982,25.093C16.982,21.221 20.133,18.069 24.005,18.069L45.665,18.069C49.538,18.069 52.689,21.221 52.689,25.093L52.689,44.909C52.689,48.781 49.538,51.933 45.665,51.933L24.005,51.933C20.133,51.933 16.982,48.781 16.982,44.909L16.982,25.093Z" fill="#FFFFFF"/>
<path d="M34.835,45.093C40.4,45.093 44.93,40.566 44.93,34.999C44.93,29.431 40.403,24.904 34.835,24.904C29.268,24.904 24.741,29.431 24.741,34.999C24.741,40.566 29.268,45.093 34.835,45.093ZM34.835,28.735C38.291,28.735 41.101,31.545 41.101,35.001C41.101,38.456 38.291,41.267 34.835,41.267C31.38,41.267 28.569,38.456 28.569,35.001C28.569,31.545 31.38,28.735 34.835,28.735Z" fill="#FFFFFF"/>
<path d="M45.864,26.535C47.363,26.535 48.584,25.316 48.584,23.815C48.584,22.315 47.365,21.096 45.864,21.096C44.363,21.096 43.145,22.315 43.145,23.815C43.145,25.316 44.363,26.535 45.864,26.535Z" fill="#FFFFFF"/>
<defs>
<linearGradient id="pf_0_32_54" x1="10.061" y1="59.773" x2="59.607" y2="10.229" gradientUnits="userSpaceOnUse">
<stop stop-color="#FAAD4F"/>
<stop offset="0.35" stop-color="#DD2A7B"/>
<stop offset="0.62" stop-color="#9537B0"/>
<stop offset="1" stop-color="#515BD4"/>
</linearGradient>
</defs>
</svg>
