<svg width="72" height="70" viewBox="0 0 72 70" fill="none" xmlns="http://www.w3.org/2000/svg" xmlns:xlink="http://www.w3.org/1999/xlink">
<path d="M35.247,0L35.087,0C15.801,0 0.167,15.634 0.167,34.92L0.167,35.08C0.167,54.366 15.801,70 35.087,70L35.247,70C54.533,70 70.167,54.366 70.167,35.08L70.167,34.92C70.167,15.634 54.533,0 35.247,0Z" fill="#007EBB"/>
<path d="M16.861,23.269C15.939,22.413 15.48,21.354 15.48,20.093C15.48,18.832 15.941,17.726 16.861,16.868C17.783,16.012 18.97,15.583 20.425,15.583C21.879,15.583 23.019,16.012 23.939,16.868C24.861,17.724 25.32,18.801 25.32,20.093C25.32,21.385 24.859,22.413 23.939,23.269C23.017,24.125 21.847,24.554 20.425,24.554C19.002,24.554 17.783,24.125 16.861,23.269ZM24.545,28.179L24.545,54.42L16.253,54.42L16.253,28.179L24.545,28.179Z" fill="#FEFFFC"/>
<path d="M52.146,30.771C53.954,32.733 54.856,35.426 54.856,38.854L54.856,53.956L46.982,53.956L46.982,39.919C46.982,38.19 46.533,36.846 45.638,35.889C44.743,34.933 43.536,34.452 42.025,34.452C40.515,34.452 39.308,34.93 38.413,35.889C37.518,36.846 37.069,38.19 37.069,39.919L37.069,53.956L29.147,53.956L29.147,28.105L37.069,28.105L37.069,31.534C37.871,30.391 38.952,29.488 40.311,28.824C41.67,28.159 43.197,27.828 44.897,27.828C47.923,27.828 50.341,28.809 52.146,30.771Z" fill="#FEFFFC"/>
</svg>
