<svg width="70" height="70" viewBox="0 0 70 70" fill="none" xmlns="http://www.w3.org/2000/svg" xmlns:xlink="http://www.w3.org/1999/xlink">
<path d="M34.414,0L34.254,0C14.968,0 -0.666,15.634 -0.666,34.92L-0.666,35.08C-0.666,54.366 14.968,70 34.254,70L34.414,70C53.7,70 69.334,54.366 69.334,35.08L69.334,34.92C69.334,15.634 53.7,0 34.414,0Z" fill="#000000"/>
<path d="M52.081,27.801L52.081,34.41C50.926,34.297 49.425,34.035 47.764,33.426C45.596,32.632 43.983,31.545 42.926,30.704L42.926,44.063L42.899,44.021C42.916,44.286 42.926,44.556 42.926,44.828C42.926,51.462 37.528,56.862 30.892,56.862C24.255,56.862 18.857,51.462 18.857,44.828C18.857,38.194 24.255,32.791 30.892,32.791C31.541,32.791 32.179,32.843 32.802,32.943L32.802,39.457C32.204,39.244 31.561,39.128 30.892,39.128C27.75,39.128 25.192,41.684 25.192,44.828C25.192,47.972 27.75,50.527 30.892,50.527C34.033,50.527 36.591,47.969 36.591,44.828C36.591,44.71 36.589,44.592 36.581,44.475L36.581,18.516L43.186,18.516C43.21,19.075 43.232,19.639 43.257,20.198C43.301,21.299 43.693,22.356 44.377,23.222C45.179,24.24 46.364,25.422 48.027,26.366C49.584,27.249 51.046,27.626 52.081,27.805L52.081,27.801Z" fill="#FF004F"/>
<path d="M49.81,22.435L49.81,29.044C48.655,28.931 47.154,28.669 45.494,28.061C43.326,27.266 41.712,26.18 40.655,25.339L40.655,38.697L40.628,38.655C40.645,38.92 40.655,39.19 40.655,39.462C40.655,46.096 35.257,51.496 28.621,51.496C21.985,51.496 16.587,46.096 16.587,39.462C16.587,32.828 21.985,27.426 28.621,27.426C29.271,27.426 29.909,27.477 30.531,27.578L30.531,34.091C29.933,33.878 29.291,33.763 28.621,33.763C25.479,33.763 22.922,36.318 22.922,39.462C22.922,42.606 25.479,45.162 28.621,45.162C31.763,45.162 34.321,42.604 34.321,39.462C34.321,39.344 34.318,39.227 34.311,39.109L34.311,13.145L40.915,13.145C40.94,13.704 40.962,14.268 40.986,14.827C41.03,15.929 41.423,16.986 42.107,17.851C42.909,18.869 44.094,20.051 45.756,20.995C47.314,21.876 48.775,22.256 49.81,22.435Z" fill="#00F7EF"/>
<path d="M51.254,25.324L51.254,31.933C50.099,31.821 48.598,31.558 46.938,30.95C44.77,30.155 43.156,29.069 42.099,28.228L42.099,41.586L42.072,41.544C42.09,41.809 42.099,42.079 42.099,42.351C42.099,48.985 36.702,54.385 30.065,54.385C23.429,54.385 18.031,48.985 18.031,42.351C18.031,35.717 23.429,30.315 30.065,30.315C30.715,30.315 31.353,30.366 31.976,30.467L31.976,36.98C31.377,36.767 30.735,36.652 30.065,36.652C26.924,36.652 24.366,39.207 24.366,42.351C24.366,45.495 26.924,48.051 30.065,48.051C33.207,48.051 35.765,45.493 35.765,42.351C35.765,42.234 35.762,42.116 35.755,41.998L35.755,16.039L42.359,16.039C42.384,16.598 42.406,17.162 42.431,17.721C42.475,18.823 42.867,19.88 43.551,20.745C44.353,21.763 45.538,22.945 47.201,23.889C48.758,24.77 50.219,25.15 51.254,25.329L51.254,25.324Z" fill="#FFFFFF"/>
</svg>
