<svg width="70" height="70" viewBox="0 0 70 70" fill="none" xmlns="http://www.w3.org/2000/svg" xmlns:xlink="http://www.w3.org/1999/xlink">
<path d="M69,35C69,15.67 53.33,0 34,0C14.67,0 -1,15.67 -1,35C-1,54.33 14.67,70 34,70C53.33,70 69,54.33 69,35Z" fill="#FF0209"/>
<path d="M48.858,50.502C47.815,50.615 46.748,50.634 45.724,50.632C37.744,50.625 29.763,50.617 21.784,50.612C19.273,50.612 16.538,50.531 14.598,48.935C12.411,47.132 11.956,44.006 11.779,41.178C11.533,37.302 11.514,33.413 11.715,29.535C11.826,27.405 12.02,25.224 12.938,23.295C13.597,21.911 14.696,20.666 16.103,20.012C17.739,19.252 19.45,19.387 21.211,19.385C25.427,19.38 29.642,19.378 33.858,19.373C38.24,19.368 42.626,19.365 47.008,19.36C49.079,19.36 51.302,19.402 52.992,20.6C55.174,22.144 55.766,25.083 56.039,27.742C56.543,32.639 56.551,37.587 56.059,42.484C55.855,44.503 55.515,46.638 54.185,48.17C52.867,49.69 50.911,50.275 48.86,50.499L48.858,50.502Z" fill="#FFFFFF"/>
<path d="M41.137,35L29.243,28.133L29.243,41.866L41.137,35Z" fill="#FF0209"/>
</svg>
